# xmcd
#
# Track frame offsets: 
#        150
#        12755
#        24795
#        38265
#        50318
#        60067
#        70030
#        83985
#        99084
#        112287
#        121970
#        134785
#        146269
#        156966
#
# Disc length: 2252 seconds
#
# Revision: 0
# Processed by: cddbd v1.5.2PL0 Copyright (c) Steve Scherf et al.
# Submitted via: ExactAudioCopy v0.95b3
#
DISCID=a508ca0e
DTITLE=Dave Clark Five  - 5 By 5 =GO!  FLAC
DYEAR=1900
DGENRE=
TTITLE0=Just A Bit Now
TTITLE1=Maze of Love
TTITLE2=Return My Love
TTITLE3=Best Days Work
TTITLE4=Who Do You Think You're Talking To
TTITLE5=Got Love If You Want It
TTITLE6=The Red Balloon
TTITLE7=Please Stay
TTITLE8=Devoted to Me
TTITLE9=34-06
TTITLE10=Away From the Noises
TTITLE11=When I'm Alone
TTITLE12=I Still Need You
TTITLE13=No One Can Break A Heart Like You
EXTD=
EXTT0=
EXTT1=
EXTT2=
EXTT3=
EXTT4=
EXTT5=
EXTT6=
EXTT7=
EXTT8=
EXTT9=
EXTT10=
EXTT11=
EXTT12=
EXTT13=
PLAYORDER=
